<svg width="26" height="20" viewBox="0 0 26 20" fill="none" xmlns="http://www.w3.org/2000/svg">
<path d="M0 17.1429V2.85714C0 2.07143 0.283264 1.39881 0.849791 0.839286C1.41632 0.279762 2.09736 0 2.89291 0H23.1071C23.9026 0 24.5837 0.279762 25.1502 0.839286C25.7167 1.39881 26 2.07143 26 2.85714V17.1429C26 17.9286 25.7167 18.6012 25.1502 19.1607C24.5837 19.7202 23.9026 20 23.1071 20H2.89291C2.09736 20 1.41632 19.7202 0.849791 19.1607C0.283264 18.6012 0 17.9286 0 17.1429ZM2.85675 17.1429H7.6662V2.85714H2.85675V17.1429ZM10.5591 17.1429H15.3686V2.85714H10.5591V17.1429ZM18.2615 17.1429H23.0709V2.85714H18.2615V17.1429Z" fill="#666666"/>
</svg>
