<svg id="Layer_1" data-name="Layer 1" xmlns="http://www.w3.org/2000/svg" xmlns:xlink="http://www.w3.org/1999/xlink" viewBox="0 0 1000 1000"><defs><style>.cls-1{fill:url(#Degradado_sin_nombre_160);}.cls-2{fill:url(#Degradado_sin_nombre_167);}.cls-3{fill:none;stroke:#ababab;stroke-miterlimit:10;stroke-width:0.63px;}.cls-4{fill:#f2f2f2;}.cls-5{fill:#4d4d4d;}</style><linearGradient id="Degradado_sin_nombre_160" x1="493.87" y1="934" x2="493.87" y2="59.44" gradientUnits="userSpaceOnUse"><stop offset="0" stop-color="#dbdbdb"/><stop offset="0.34" stop-color="#d9d9d9"/><stop offset="0.53" stop-color="#d0d0d0"/><stop offset="0.69" stop-color="#c2c2c2"/><stop offset="0.83" stop-color="#aeaeae"/><stop offset="0.96" stop-color="#959595"/><stop offset="1" stop-color="#8a8a8a"/></linearGradient><linearGradient id="Degradado_sin_nombre_167" x1="493.87" y1="80.35" x2="493.87" y2="913.1" xlink:href="#Degradado_sin_nombre_160"/></defs><path class="cls-1" d="M943.87,512.62C943.87,762.91,747.34,934,497.05,934S43.87,737.47,43.87,487.18,246.77,59.44,497.05,59.44,943.87,262.34,943.87,512.62Z"/><path class="cls-2" d="M922.36,511.86c0,238.32-187.14,401.24-425.46,401.24S65.38,726,65.38,487.64,258.58,80.35,496.9,80.35,922.36,273.54,922.36,511.86Z"/><path class="cls-3" d="M922.36,511.86c0,238.32-187.14,401.24-425.46,401.24S65.38,726,65.38,487.64,258.58,80.35,496.9,80.35,922.36,273.54,922.36,511.86Z"/><path class="cls-4" d="M886.63,510.6c0,218.45-171.54,367.78-390,367.78s-395.54-171.54-395.54-390S278.2,115.07,496.65,115.07,886.63,292.16,886.63,510.6Z"/><path class="cls-5" d="M586.42,512.39l15.22-68.63-71.12.54-.35-46.81c-.14-19.16,10.17-39.9,37.7-40.1l33.15-.25L600.48,285l-49.93.32c-70.73.53-104,42.87-103.53,102.8l.42,56.77-55.38.41.51,68.54,55.39-.41,1.33,178.4c13.66,3.55,31.76,5.3,48.67,5.17,11.42-.08,26.67-1.61,34.43-3.23l-1.35-181Z"/></svg>