<svg width="29" height="26" viewBox="0 0 29 26" fill="none" xmlns="http://www.w3.org/2000/svg">
<path d="M20.3 7.22222V2.88889H8.7V7.22222H5.8V0H23.2V7.22222H20.3ZM23.2 13.7222C23.6108 13.7222 23.9552 13.5838 24.2331 13.3069C24.511 13.0301 24.65 12.687 24.65 12.2778C24.65 11.8685 24.511 11.5255 24.2331 11.2486C23.9552 10.9718 23.6108 10.8333 23.2 10.8333C22.7892 10.8333 22.4448 10.9718 22.1669 11.2486C21.889 11.5255 21.75 11.8685 21.75 12.2778C21.75 12.687 21.889 13.0301 22.1669 13.3069C22.4448 13.5838 22.7892 13.7222 23.2 13.7222ZM20.3 23.1111V17.3333H8.7V23.1111H20.3ZM23.2 26H5.8V20.2222H0V11.5556C0 10.3278 0.422917 9.29861 1.26875 8.46806C2.11458 7.6375 3.14167 7.22222 4.35 7.22222H24.65C25.8825 7.22222 26.9156 7.6375 27.7494 8.46806C28.5831 9.29861 29 10.3278 29 11.5556V20.2222H23.2V26ZM26.1 17.3333V11.5556C26.1 11.1463 25.961 10.8032 25.6831 10.5264C25.4052 10.2495 25.0608 10.1111 24.65 10.1111H4.35C3.93917 10.1111 3.59479 10.2495 3.31687 10.5264C3.03896 10.8032 2.9 11.1463 2.9 11.5556V17.3333H5.8V14.4444H23.2V17.3333H26.1Z" fill="#666666"/>
</svg>
