<?xml version="1.0" encoding="utf-8"?>
<!-- Generator: Adobe Illustrator 25.1.0, SVG Export Plug-In . SVG Version: 6.00 Build 0)  -->
<svg version="1.1" id="Layer_1" xmlns="http://www.w3.org/2000/svg" xmlns:xlink="http://www.w3.org/1999/xlink" x="0px" y="0px"
	 viewBox="0 0 1000 1000" style="enable-background:new 0 0 1000 1000;" xml:space="preserve">
<style type="text/css">
	.st0{fill:url(#SVGID_1_);}
	.st1{fill:url(#SVGID_2_);}
	.st2{fill:none;stroke:#ABABAB;stroke-width:0.63;stroke-miterlimit:10;}
	.st3{fill:#F2F2F2;}
	.st4{fill:#4D4D4D;}
	.st5{fill:#FFFFFF;}
</style>
<linearGradient id="SVGID_1_" gradientUnits="userSpaceOnUse" x1="494.91" y1="66" x2="494.91" y2="940.56" gradientTransform="matrix(1 0 0 -1 0 1000)">
	<stop  offset="0" style="stop-color:#DBDBDB"/>
	<stop  offset="0.34" style="stop-color:#D9D9D9"/>
	<stop  offset="0.53" style="stop-color:#D0D0D0"/>
	<stop  offset="0.69" style="stop-color:#C2C2C2"/>
	<stop  offset="0.83" style="stop-color:#AEAEAE"/>
	<stop  offset="0.96" style="stop-color:#959595"/>
	<stop  offset="1" style="stop-color:#8A8A8A"/>
</linearGradient>
<path class="st0" d="M944.9,512.6c0,250.3-196.5,421.4-446.8,421.4S44.9,737.5,44.9,487.2S247.8,59.4,498.1,59.4
	S944.9,262.3,944.9,512.6z"/>
<linearGradient id="SVGID_2_" gradientUnits="userSpaceOnUse" x1="494.92" y1="919.65" x2="494.92" y2="86.9" gradientTransform="matrix(1 0 0 -1 0 1000)">
	<stop  offset="0" style="stop-color:#DBDBDB"/>
	<stop  offset="0.34" style="stop-color:#D9D9D9"/>
	<stop  offset="0.53" style="stop-color:#D0D0D0"/>
	<stop  offset="0.69" style="stop-color:#C2C2C2"/>
	<stop  offset="0.83" style="stop-color:#AEAEAE"/>
	<stop  offset="0.96" style="stop-color:#959595"/>
	<stop  offset="1" style="stop-color:#8A8A8A"/>
</linearGradient>
<path class="st1" d="M923.4,511.9c0,238.3-187.1,401.2-425.5,401.2S66.4,726,66.4,487.6S259.6,80.3,497.9,80.3
	S923.4,273.5,923.4,511.9z"/>
<path class="st2" d="M923.4,511.9c0,238.3-187.1,401.2-425.5,401.2S66.4,726,66.4,487.6S259.6,80.3,497.9,80.3
	S923.4,273.5,923.4,511.9z"/>
<path class="st3" d="M887.7,510.6c0,218.4-171.5,367.8-390,367.8s-395.5-171.5-395.5-390s177.1-373.3,395.6-373.3
	S887.7,292.1,887.7,510.6z"/>
<path class="st4" d="M293.4,404.4c3.5-18.4,6.8-36.9,16.8-53.3c22.8-37.4,58.6-51.8,99.8-52.9c56.3-1.5,112.6-1.6,168.9-0.3
	c38.2,0.9,72.2,13.4,95.6,46.4c15,21.3,20.6,45.7,21.1,70.9c0.9,54.1,1.4,108.2,0.3,162.3c-0.9,43.5-16,80.7-56.7,103
	c-18.8,10.3-39.5,14.7-60.5,15c-55.5,0.8-111.1,1.4-166.7,0.2c-41.7-0.9-77.9-14.9-101.1-52.6c-10.1-16.3-13.4-34.8-17-53.2
	L293.4,404.4z"/>
<path class="st5" d="M598.9,497.3c-0.1,56.1-46.5,102.4-103.7,103.2c-57.4,0.8-105.1-46.5-105-104.1
	c0.1-56.6,48.3-104.1,104.8-103.2C553,394.2,599,440.2,598.9,497.3z M560.2,496.8c0-35.7-29.5-64.9-65.6-65
	c-35.9-0.1-65.7,29.3-65.7,65s29.5,64.9,65.6,65.1C530.5,561.9,560.2,532.5,560.2,496.8z"/>
<path class="st5" d="M601.5,365.7c13.8-0.2,25.6,11.2,25.5,24.9c0,13.1-11.3,24.3-24.7,24.7c-13.8,0.4-25.8-10.8-26.1-24.4
	S587.3,365.9,601.5,365.7z"/>
</svg>
