<svg id="Layer_1" data-name="Layer 1" xmlns="http://www.w3.org/2000/svg" xmlns:xlink="http://www.w3.org/1999/xlink" viewBox="0 0 1000 1000"><defs><style>.cls-1{fill:url(#Degradado_sin_nombre_160);}.cls-2{fill:url(#Degradado_sin_nombre_167);}.cls-3{fill:none;stroke:#ababab;stroke-miterlimit:10;stroke-width:0.63px;}.cls-4{fill:#f2f2f2;}.cls-5{fill:#4d4d4d;}</style><linearGradient id="Degradado_sin_nombre_160" x1="491.55" y1="934" x2="491.55" y2="59.44" gradientUnits="userSpaceOnUse"><stop offset="0" stop-color="#dbdbdb"/><stop offset="0.34" stop-color="#d9d9d9"/><stop offset="0.53" stop-color="#d0d0d0"/><stop offset="0.69" stop-color="#c2c2c2"/><stop offset="0.83" stop-color="#aeaeae"/><stop offset="0.96" stop-color="#959595"/><stop offset="1" stop-color="#8a8a8a"/></linearGradient><linearGradient id="Degradado_sin_nombre_167" x1="491.55" y1="80.35" x2="491.55" y2="913.1" xlink:href="#Degradado_sin_nombre_160"/></defs><path class="cls-1" d="M941.55,512.62C941.55,762.91,745,934,494.73,934S41.55,737.47,41.55,487.18,244.44,59.44,494.73,59.44,941.55,262.34,941.55,512.62Z"/><path class="cls-2" d="M920,511.86C920,750.19,732.9,913.1,494.58,913.1S63.06,726,63.06,487.64,256.26,80.35,494.58,80.35,920,273.54,920,511.86Z"/><path class="cls-3" d="M920,511.86C920,750.19,732.9,913.1,494.58,913.1S63.06,726,63.06,487.64,256.26,80.35,494.58,80.35,920,273.54,920,511.86Z"/><path class="cls-4" d="M884.31,510.6c0,218.45-171.54,367.78-390,367.78S98.79,706.84,98.79,488.4,275.88,115.07,494.32,115.07,884.31,292.15,884.31,510.6Z"/><path class="cls-5" d="M287.46,660.61c47.74,4.18,89.55-7.19,128.24-34.86-8.38-2.12-15.49-3.57-22.36-5.73-25.91-8.18-43.92-25.32-55.15-49.77-3.46-7.54-2.69-8.15,5.54-8,8.51.14,17.17,1.38,27.28-2.44-15.5-4.44-27.87-11.29-38.36-21.08-16.83-15.7-26.81-35-28.57-58.14-.71-9.34.48-10,8.81-6.19a63.44,63.44,0,0,0,26.81,6.21c-6.37-7.32-13.27-12.63-18.19-19.76-19.52-28.32-22.83-58.29-9.36-90,3.58-8.43,5-8.75,11.1-1.92,29.87,33.56,65.7,58.2,108.2,73a253.32,253.32,0,0,0,57.74,12.77c10.13,1,11-.05,9.84-10-4.16-35.34,15.84-72.31,48.24-89.18s74.06-12.09,100.46,12.06c5.14,4.7,10,5.72,16.51,3.95A194.87,194.87,0,0,0,704,356.2c1.95-1,3.67-3.17,7.36-1.81-6.06,18.92-18,33.33-33.19,45.76,14.92-1.78,28.88-6.07,43.33-11.72.32,5-2.61,7.5-4.68,10.18-8.9,11.5-18.78,22.14-30.51,30.78-5.49,4-7.35,8.68-7.25,15.38.91,59.46-18.18,112.48-53.73,159.49C583.06,660.1,526.34,691.6,457,700c-57.26,7-111.16-3.9-161.31-32.65-1.83-1-3.6-2.2-5.33-3.4C289.76,663.55,289.36,662.84,287.46,660.61Z"/></svg>