<svg id="Layer_1" data-name="Layer 1" xmlns="http://www.w3.org/2000/svg" xmlns:xlink="http://www.w3.org/1999/xlink" viewBox="0 0 1000 1000"><defs><style>.cls-1{fill:url(#Degradado_sin_nombre_160);}.cls-2{fill:url(#Degradado_sin_nombre_167);}.cls-3{fill:none;stroke:#ababab;stroke-miterlimit:10;stroke-width:0.63px;}.cls-4{fill:#f2f2f2;}.cls-5{fill:#4d4d4d;}</style><linearGradient id="Degradado_sin_nombre_160" x1="492.31" y1="934" x2="492.31" y2="59.44" gradientUnits="userSpaceOnUse"><stop offset="0" stop-color="#dbdbdb"/><stop offset="0.34" stop-color="#d9d9d9"/><stop offset="0.53" stop-color="#d0d0d0"/><stop offset="0.69" stop-color="#c2c2c2"/><stop offset="0.83" stop-color="#aeaeae"/><stop offset="0.96" stop-color="#959595"/><stop offset="1" stop-color="#8a8a8a"/></linearGradient><linearGradient id="Degradado_sin_nombre_167" x1="492.31" y1="80.35" x2="492.31" y2="913.1" xlink:href="#Degradado_sin_nombre_160"/></defs><path class="cls-1" d="M942.31,512.62C942.31,762.91,745.78,934,495.49,934S42.31,737.47,42.31,487.18,245.21,59.44,495.49,59.44,942.31,262.34,942.31,512.62Z"/><path class="cls-2" d="M920.8,511.86c0,238.32-187.14,401.24-425.46,401.24S63.82,726,63.82,487.64,257,80.35,495.34,80.35,920.8,273.54,920.8,511.86Z"/><path class="cls-3" d="M920.8,511.86c0,238.32-187.14,401.24-425.46,401.24S63.82,726,63.82,487.64,257,80.35,495.34,80.35,920.8,273.54,920.8,511.86Z"/><path class="cls-4" d="M885.07,510.6c0,218.45-171.54,367.78-390,367.78S99.56,706.84,99.56,488.4,276.64,115.07,495.09,115.07,885.07,292.16,885.07,510.6Z"/><path class="cls-5" d="M486.87,293.7c-112.8,0-204.24,91.43-204.21,204.25S374.1,702.16,486.87,702.16,691.1,610.72,691.1,498,599.69,293.7,486.87,293.7ZM621.6,387.13a174.1,174.1,0,0,1,39.67,109.05c-2-.4-61.27-13.28-121.5-5.69-1.24-3-2.46-6-3.77-9-3.67-8.55-7.53-17-11.61-25.29C593.2,428,621.2,387.64,621.6,387.13ZM486.87,323.51A173.77,173.77,0,0,1,602.06,367c-.49.71-25.33,38.52-91.08,63.14a894.1,894.1,0,0,0-65.23-101.77A175.61,175.61,0,0,1,486.87,323.51Zm-41.78,5.08,0,.05a1.27,1.27,0,0,0-.31,0Zm-32.63,11.57a1063,1063,0,0,1,64.75,100.52c-83.73,22.24-156.46,21.38-161,21.29A174.84,174.84,0,0,1,412.46,340.16ZM312.45,498c0-1.86.09-3.68.15-5.55,3,.09,89.22,2,179-24.86,5,9.79,9.77,19.73,14.14,29.66-2.28.66-4.59,1.35-6.86,2.08-94.1,30.46-141.83,115.13-141.83,115.13l.11.13A173.67,173.67,0,0,1,312.45,498Zm174.4,174.38a173.54,173.54,0,0,1-107.18-37v.09s-1.6-1.2-3.95-3.09c1.28,1.09,2.66,2,3.95,3,.69-1.46,34.5-73.19,136.86-108.86l1.13-.4c24.55,63.73,34.7,117.17,37.27,132.46A173.79,173.79,0,0,1,486.85,672.33Zm97.47-29.75C582.55,632.17,573.27,581,550.38,518c56.39-9,105.23,6.46,108.69,7.57A174.48,174.48,0,0,1,584.32,642.58Z"/></svg>