<svg id="Layer_1" data-name="Layer 1" xmlns="http://www.w3.org/2000/svg" xmlns:xlink="http://www.w3.org/1999/xlink" viewBox="0 0 1000 1000"><defs><style>.cls-1{fill:url(#Degradado_sin_nombre_160);}.cls-2{fill:url(#Degradado_sin_nombre_167);}.cls-3{fill:none;stroke:#ababab;stroke-miterlimit:10;stroke-width:0.63px;}.cls-4{fill:#f2f2f2;}.cls-5{fill:#fff;}.cls-6{fill:#4d4d4d;}</style><linearGradient id="Degradado_sin_nombre_160" x1="493.96" y1="934" x2="493.96" y2="59.44" gradientUnits="userSpaceOnUse"><stop offset="0" stop-color="#dbdbdb"/><stop offset="0.34" stop-color="#d9d9d9"/><stop offset="0.53" stop-color="#d0d0d0"/><stop offset="0.69" stop-color="#c2c2c2"/><stop offset="0.83" stop-color="#aeaeae"/><stop offset="0.96" stop-color="#959595"/><stop offset="1" stop-color="#8a8a8a"/></linearGradient><linearGradient id="Degradado_sin_nombre_167" x1="493.96" y1="80.35" x2="493.96" y2="913.1" xlink:href="#Degradado_sin_nombre_160"/></defs><path class="cls-1" d="M944,512.62C944,762.91,747.43,934,497.14,934S44,737.47,44,487.18,246.86,59.44,497.14,59.44,944,262.34,944,512.62Z"/><path class="cls-2" d="M922.45,511.86C922.45,750.18,735.31,913.1,497,913.1S65.47,726,65.47,487.64,258.67,80.35,497,80.35,922.45,273.54,922.45,511.86Z"/><path class="cls-3" d="M922.45,511.86C922.45,750.18,735.31,913.1,497,913.1S65.47,726,65.47,487.64,258.67,80.35,497,80.35,922.45,273.54,922.45,511.86Z"/><path class="cls-4" d="M886.72,510.6c0,218.45-171.54,367.78-390,367.78s-395.53-171.54-395.53-390S278.29,115.07,496.74,115.07,886.72,292.16,886.72,510.6Z"/><path class="cls-5" d="M580.8,516.79a12.38,12.38,0,0,1,.19,3.1A5.07,5.07,0,0,0,580.8,516.79Z"/><path class="cls-6" d="M503.56,348c-218.06,0-221.88,19.4-221.88,170.85s3.82,170.84,221.88,170.84S725.44,670.25,725.44,518.8,721.62,348,503.56,348Zm70.7,182L474.14,578.36a12.12,12.12,0,0,1-17.4-10.91V472.87a12.12,12.12,0,0,1,17.2-11l100.12,46.19a11.83,11.83,0,0,1,6.74,8.74,5.07,5.07,0,0,1,.19,3.1A11.87,11.87,0,0,1,574.26,530Z"/></svg>